<svg width="20" height="20" viewBox="0 0 1024 1024" class="icon" version="1.1" xmlns="http://www.w3.org/2000/svg" fill="#000000" stroke="#000000"><g id="SVGRepo_bgCarrier" stroke-width="0"></g><g id="SVGRepo_tracerCarrier" stroke-linecap="round" stroke-linejoin="round"></g><g id="SVGRepo_iconCarrier"><path d="M644.547075 419.205273v300.049594c0 6.600989-2.552546 9.359336-9.153535 9.359336h-240.039676c-6.600989 0-15.993089-2.758347-15.993088-9.359336v-2.280192c8.191083-1.199994 9.255923-2.880189 11.776729-4.681204 0 0 70.909178-49.928744 102.233925-72.311901 31.385157-22.443566 34.583775-57.129729 6.499624-77.172285-28.023741-20.043579-108.983378-76.632697-108.983377-76.632697-2.520806-1.79999-3.336842-3.48121-11.527925-4.68018v-62.290111c0-6.600989 9.3921-14.138832 15.993088-14.138833h240.039676c6.602013-0.001024 9.154559 7.53682 9.154559 14.137809z" fill="#a020f0"></path><path d="M182.774793 529.98045h107.507959v25.597133h-107.507959zM182.774793 639.53618h107.507959v24.573248h-107.507959zM182.774793 586.294143h107.507959v22.525477h-107.507959z" fill="#FF4C48"></path><path d="M445.913322 170.596701h133.105092v24.573248h-133.105092z" fill="#262626"></path><path d="M863.431232 170.596701H614.8544v14.568864c0 56.253284-46.135249 102.016862-102.388532 102.016863s-102.388532-45.763578-102.388533-102.016863v-14.568864H167.316173c-19.855184 0-38.806278 18.718672-38.806278 38.572832v120.019838c0 19.855184 18.952117 33.896748 38.806278 33.896747h66.01091c13.238837 0 20.096821 12.874334 20.096822 26.113172v74.22759h-74.105749c-26.471531 0-50.808261 25.321708-50.808261 51.793239v168.027773c0 26.471531 24.337754 45.365287 50.808261 45.365287h74.105749v80.655543c0 26.471531 25.444574 46.306238 51.915081 46.306238h420.069432c26.471531 0 44.052666-19.834707 44.052666-46.306238v-420.069432c0-13.238837 14.720399-26.113171 27.959237-26.113172h66.010911c19.855184 0 31.967748-14.042587 31.967747-33.896747v-120.019838c0-19.85416-12.112563-38.572832-31.967747-38.572832zM153.082119 329.190395v-120.019838c0-6.616347 7.616683-13.999584 14.23303-13.999584h19.555186v144.367831H167.316173c-6.616347-0.001024-14.234054-3.732062-14.234054-10.348409z m0 354.058521V515.221143c0-13.238837 12.9972-27.219991 26.235013-27.219991h192.031741c4.113971 0 11.44499 3.958341 14.797191 6.342969l107.24994 77.422113c9.400291 6.710544 14.369207 15.709473 14.369206 25.261299 0 11.567856-7.425216 23.71216-20.370198 32.959892l-101.243829 71.840914c-3.358344 2.390772-10.689363 4.259363-14.803334 4.259363h-192.029693c-13.238837 0.001024-26.236038-9.599949-26.236037-22.838786z m593.853488-294.048602v420.069432c0 13.238837-8.289376 21.73299-21.527189 21.73299h-420.069432c-13.238837 0-27.341834-8.494153-27.341834-21.73299v-80.655543h93.353769c9.024525 0 21.384869-2.634457 28.744556-7.891084l101.248948-71.661734c19.339146-13.813237 30.4268-32.5401 30.426801-51.961156 0-17.381477-8.673333-32.981394-24.425809-44.226727l-107.256083-78.427568c-7.354568-5.250484-19.713888-11.015982-28.739437-11.015982h-93.353769V389.202361c0-26.471531-18.198538-49.662534-44.670069-49.662533h-21.882477v-144.367831h178.477547c6.059353 64.504775 60.009919 114.018846 125.452573 114.018846s119.39322-49.51407 125.452573-114.018846h170.615132v144.367831h-14.020062c-26.472555-0.002048-50.485738 23.188955-50.485738 49.660486z m124.91401-60.009919c0 6.616347-1.802038 10.347385-8.418385 10.347385h-26.393716v-144.367831h26.393716c6.616347 0 8.418385 7.383237 8.418385 13.999584v120.020862z" fill="#262626"></path><path d="M419.357832 599.23503c0-26.471531-21.536404-48.007935-48.007935-48.007935s-48.007935 21.536404-48.007935 48.007935 21.536404 48.007935 48.007935 48.007935 48.007935-21.536404 48.007935-48.007935z m-72.011903 0c0-13.238837 10.76513-24.003968 24.003968-24.003968s24.003968 10.76513 24.003967 24.003968-10.76513 24.003968-24.003967 24.003967-24.003968-10.76513-24.003968-24.003967zM314.856 770.593502h395.219736v24.573247h-395.219736z" fill="#262626"></path></g></svg>